<svg width="48" height="48" viewBox="0 0 48 48" fill="none" xmlns="http://www.w3.org/2000/svg">
  <defs>
    <linearGradient id="dejoiy-icon-bg" x1="4" y1="4" x2="44" y2="44" gradientUnits="userSpaceOnUse">
      <stop offset="0%" stop-color="#E91E63"/>
      <stop offset="55%" stop-color="#D946EF"/>
      <stop offset="100%" stop-color="#00BCD4"/>
    </linearGradient>
    <linearGradient id="dejoiy-icon-shine" x1="24" y1="6" x2="24" y2="28" gradientUnits="userSpaceOnUse">
      <stop offset="0%" stop-color="#FFFFFF" stop-opacity="0.45"/>
      <stop offset="100%" stop-color="#FFFFFF" stop-opacity="0"/>
    </linearGradient>
  </defs>
  <rect x="2" y="2" width="44" height="44" rx="11" fill="url(#dejoiy-icon-bg)"/>
  <rect x="2" y="2" width="44" height="44" rx="11" fill="url(#dejoiy-icon-shine)"/>
  <rect x="2.5" y="2.5" width="43" height="43" rx="10.5" stroke="rgba(255,255,255,0.55)" stroke-width="1" fill="none"/>
  <path fill="#FFFFFF" d="M13 11h11.5c7.2 0 11.5 4.6 11.5 13s-4.3 13-11.5 13H13V11zm4.2 4.2v25.6h7.2c4.8 0 7.3-3.4 7.3-8.8s-2.5-8.8-7.3-8.8h-7.2z"/>
  <circle cx="29.5" cy="21.5" r="2.1" fill="#FFFFFF"/>
  <path d="M25.5 30.5c1.8-4.2 3.6-6.2 6.5-6.2s4.7 2 6.5 6.2" stroke="#FFFFFF" stroke-width="2.2" stroke-linecap="round" fill="none"/>
  <path d="M27 17.5c2.2-2.8 4.8-3.5 7.5-2.2" stroke="#FFFFFF" stroke-width="1.8" stroke-linecap="round" fill="none" opacity="0.9"/>
</svg>
